# xmcd
#
# Track frame offsets:
#	150
#	28629
#	48489
#	70383
#	87330
#	105257
#	126527
#	148366
#	173043
#	190435
#
# Disc length: 2807 seconds
#
# Revision: 0
# Processed by: cddbd v1.5.2PL0 Copyright (c) Steve Scherf et al.
# Submitted via: audiograbber 1.83.01
#
DISCID=940af50a
DTITLE=Chris Rea - Lexus Inspiration
DYEAR=1900
DGENRE=
TTITLE0=Steel River
TTITLE1=You Must Be Evil
TTITLE2=Texas
TTITLE3=When Grey Sky Turns To Blue
TTITLE4=Julia
TTITLE5=Gone Fishing
TTITLE6=Sail Away
TTITLE7=Deltics
TTITLE8=Because Of You
TTITLE9=Mississippi
EXTD=
EXTT0=
EXTT1=
EXTT2=
EXTT3=
EXTT4=
EXTT5=
EXTT6=
EXTT7=
EXTT8=
EXTT9=
PLAYORDER=
